<svg xmlns="http://www.w3.org/2000/svg" xmlns:xlink="http://www.w3.org/1999/xlink" width="349" zoomAndPan="magnify" viewBox="0 0 261.75 245.249991" height="327" preserveAspectRatio="xMidYMid meet" version="1.0"><defs><g/><clipPath id="9c6dc734b5"><path d="M 11.6875 0 L 248.710938 0 L 248.710938 97.503906 L 11.6875 97.503906 Z M 11.6875 146.246094 L 248.710938 146.246094 L 248.710938 243.753906 L 11.6875 243.753906 Z M 11.6875 146.246094 " clip-rule="nonzero"/></clipPath></defs><g clip-path="url(#9c6dc734b5)"><path fill="#f59e0b" d="M 249.09375 243.734375 L 183.484375 243.734375 C 168.941406 220.949219 155.773438 201.253906 143.980469 184.648438 C 132.300781 168.046875 119.589844 150.929688 105.851562 133.296875 L 80.945312 133.296875 L 80.945312 210.585938 C 80.945312 214.59375 81.578125 218.140625 82.835938 221.234375 C 84.097656 224.210938 86.785156 226.5 90.910156 228.105469 C 92.96875 228.90625 96.578125 229.648438 101.730469 230.335938 C 106.882812 231.023438 111.234375 231.425781 114.78125 231.539062 L 114.78125 243.734375 L 11.730469 243.734375 L 11.730469 231.539062 C 14.480469 231.308594 18.429688 230.910156 23.582031 230.335938 C 28.847656 229.765625 32.511719 229.019531 34.574219 228.105469 C 38.007812 226.613281 40.472656 224.441406 41.960938 221.578125 C 43.5625 218.714844 44.363281 215.050781 44.363281 210.585938 L 44.363281 34.367188 C 44.363281 30.359375 43.792969 26.808594 42.644531 23.71875 C 41.5 20.625 38.808594 18.28125 34.574219 16.675781 C 31.710938 15.644531 27.988281 14.730469 23.410156 13.929688 C 18.828125 13.011719 14.9375 12.441406 11.730469 12.210938 L 11.730469 0.015625 L 124.230469 0.015625 C 134.535156 0.015625 144.210938 1.105469 153.253906 3.28125 C 162.300781 5.339844 170.488281 8.71875 177.816406 13.414062 C 184.914062 17.992188 190.582031 24.003906 194.820312 31.445312 C 199.054688 38.773438 201.175781 47.648438 201.175781 58.070312 C 201.175781 67.457031 199.742188 75.757812 196.878906 82.972656 C 194.019531 90.1875 189.78125 96.425781 184.171875 101.695312 C 179.019531 106.617188 172.835938 110.910156 165.621094 114.574219 C 158.40625 118.125 150.449219 121.160156 141.746094 123.679688 C 153.769531 139.59375 163.730469 152.992188 171.632812 163.867188 C 179.648438 174.746094 189.4375 187.972656 201.003906 203.542969 C 206.039062 210.414062 210.5625 215.507812 214.570312 218.828125 C 218.691406 222.035156 222.757812 224.667969 226.765625 226.730469 C 229.742188 228.21875 233.464844 229.363281 237.929688 230.164062 C 242.394531 230.964844 246.117188 231.425781 249.09375 231.539062 Z M 158.75 62.019531 C 158.75 47.25 154.515625 35.570312 146.042969 26.980469 C 137.570312 18.28125 125.601562 13.929688 110.144531 13.929688 L 80.949219 13.929688 L 80.949219 118.527344 L 103.445312 118.527344 C 119.25 118.527344 132.414062 113.488281 142.949219 103.410156 C 153.484375 93.222656 158.75 79.421875 158.75 62.019531 Z M 158.75 62.019531 " fill-opacity="1" fill-rule="nonzero"/></g><g fill="#dc2626" fill-opacity="1"><g transform="translate(24.759636, 134.138972)"><g><path d="M 22.65625 -20.265625 C 22.65625 -19.335938 22.523438 -18.457031 22.265625 -17.625 C 22.015625 -16.800781 21.65625 -16.046875 21.1875 -15.359375 C 20.726562 -14.671875 20.171875 -14.0625 19.515625 -13.53125 C 18.867188 -13 18.171875 -12.570312 17.421875 -12.25 L 26.96875 0 L 19.78125 0 L 10.859375 -11.640625 L 8.09375 -11.640625 L 8.09375 0 L 1.90625 0 L 1.90625 -28.84375 L 14.359375 -28.84375 C 15.503906 -28.84375 16.582031 -28.617188 17.59375 -28.171875 C 18.613281 -27.722656 19.492188 -27.113281 20.234375 -26.34375 C 20.984375 -25.570312 21.570312 -24.660156 22 -23.609375 C 22.4375 -22.566406 22.65625 -21.453125 22.65625 -20.265625 Z M 13.59375 -17.25 C 14.375 -17.25 15.050781 -17.539062 15.625 -18.125 C 16.195312 -18.707031 16.484375 -19.421875 16.484375 -20.265625 C 16.484375 -21.078125 16.195312 -21.773438 15.625 -22.359375 C 15.050781 -22.941406 14.375 -23.234375 13.59375 -23.234375 L 8.09375 -23.234375 L 8.09375 -17.25 Z M 13.59375 -17.25 "/></g></g></g><g fill="#dc2626" fill-opacity="1"><g transform="translate(52.70694, 134.138972)"><g><path d="M 11.765625 -20.75 C 13.203125 -20.75 14.554688 -20.46875 15.828125 -19.90625 C 17.097656 -19.351562 18.207031 -18.59375 19.15625 -17.625 C 20.113281 -16.664062 20.867188 -15.539062 21.421875 -14.25 C 21.972656 -12.96875 22.25 -11.59375 22.25 -10.125 C 22.25 -8.664062 21.972656 -7.289062 21.421875 -6 C 20.867188 -4.707031 20.113281 -3.582031 19.15625 -2.625 C 18.207031 -1.664062 17.097656 -0.90625 15.828125 -0.34375 C 14.554688 0.207031 13.203125 0.484375 11.765625 0.484375 C 10.296875 0.484375 8.921875 0.207031 7.640625 -0.34375 C 6.367188 -0.90625 5.257812 -1.664062 4.3125 -2.625 C 3.363281 -3.582031 2.609375 -4.707031 2.046875 -6 C 1.492188 -7.289062 1.21875 -8.664062 1.21875 -10.125 C 1.21875 -11.59375 1.492188 -12.96875 2.046875 -14.25 C 2.609375 -15.539062 3.363281 -16.664062 4.3125 -17.625 C 5.257812 -18.59375 6.367188 -19.351562 7.640625 -19.90625 C 8.921875 -20.46875 10.296875 -20.75 11.765625 -20.75 Z M 11.765625 -4.4375 C 12.441406 -4.4375 13.070312 -4.570312 13.65625 -4.84375 C 14.238281 -5.113281 14.753906 -5.484375 15.203125 -5.953125 C 15.648438 -6.429688 16 -7.003906 16.25 -7.671875 C 16.507812 -8.335938 16.640625 -9.078125 16.640625 -9.890625 C 16.640625 -10.703125 16.507812 -11.457031 16.25 -12.15625 C 16 -12.863281 15.648438 -13.484375 15.203125 -14.015625 C 14.753906 -14.546875 14.238281 -14.96875 13.65625 -15.28125 C 13.070312 -15.59375 12.441406 -15.75 11.765625 -15.75 C 11.078125 -15.75 10.4375 -15.59375 9.84375 -15.28125 C 9.25 -14.96875 8.726562 -14.546875 8.28125 -14.015625 C 7.832031 -13.484375 7.476562 -12.863281 7.21875 -12.15625 C 6.957031 -11.457031 6.828125 -10.703125 6.828125 -9.890625 C 6.828125 -9.078125 6.957031 -8.335938 7.21875 -7.671875 C 7.476562 -7.003906 7.832031 -6.429688 8.28125 -5.953125 C 8.726562 -5.484375 9.25 -5.113281 9.84375 -4.84375 C 10.4375 -4.570312 11.078125 -4.4375 11.765625 -4.4375 Z M 11.765625 -4.4375 "/></g></g></g><g fill="#dc2626" fill-opacity="1"><g transform="translate(76.057386, 134.138972)"><g><path d="M 9.359375 -10.53125 L 2.15625 -20.1875 L 9.109375 -20.1875 L 12.6875 -14.8125 L 16.28125 -20.1875 L 23.234375 -20.1875 L 15.984375 -10.5 L 23.84375 0 L 16.890625 0 L 12.65625 -6.265625 L 8.421875 0 L 1.46875 0 Z M 9.359375 -10.53125 "/></g></g></g><g fill="#dc2626" fill-opacity="1"><g transform="translate(101.360482, 134.138972)"><g><path d="M 22.953125 -20.1875 L 22.953125 0 L 18.109375 0 L 17.53125 -2.15625 C 16.75 -1.09375 15.804688 -0.382812 14.703125 -0.03125 C 13.609375 0.3125 12.460938 0.484375 11.265625 0.484375 C 9.828125 0.484375 8.503906 0.207031 7.296875 -0.34375 C 6.097656 -0.90625 5.050781 -1.664062 4.15625 -2.625 C 3.257812 -3.582031 2.554688 -4.707031 2.046875 -6 C 1.546875 -7.289062 1.296875 -8.664062 1.296875 -10.125 C 1.296875 -11.59375 1.546875 -12.96875 2.046875 -14.25 C 2.554688 -15.539062 3.257812 -16.664062 4.15625 -17.625 C 5.050781 -18.59375 6.097656 -19.351562 7.296875 -19.90625 C 8.503906 -20.46875 9.828125 -20.75 11.265625 -20.75 C 12.566406 -20.75 13.757812 -20.546875 14.84375 -20.140625 C 15.9375 -19.734375 16.832031 -19.082031 17.53125 -18.1875 L 18.109375 -20.1875 Z M 17.328125 -10.046875 C 17.328125 -11.109375 17.1875 -12 16.90625 -12.71875 C 16.625 -13.4375 16.242188 -14.019531 15.765625 -14.46875 C 15.285156 -14.914062 14.726562 -15.238281 14.09375 -15.4375 C 13.457031 -15.644531 12.773438 -15.75 12.046875 -15.75 C 11.304688 -15.75 10.617188 -15.597656 9.984375 -15.296875 C 9.347656 -14.992188 8.785156 -14.59375 8.296875 -14.09375 C 7.804688 -13.59375 7.425781 -12.992188 7.15625 -12.296875 C 6.882812 -11.609375 6.75 -10.882812 6.75 -10.125 C 6.75 -9.34375 6.882812 -8.613281 7.15625 -7.9375 C 7.425781 -7.257812 7.804688 -6.664062 8.296875 -6.15625 C 8.785156 -5.65625 9.347656 -5.253906 9.984375 -4.953125 C 10.617188 -4.660156 11.304688 -4.515625 12.046875 -4.515625 C 13.503906 -4.515625 14.742188 -4.96875 15.765625 -5.875 C 16.785156 -6.789062 17.304688 -8.179688 17.328125 -10.046875 Z M 17.328125 -10.046875 "/></g></g></g><g fill="#dc2626" fill-opacity="1"><g transform="translate(126.094054, 134.138972)"><g><path d="M 12.328125 -20.1875 C 13.085938 -20.1875 13.925781 -20.078125 14.84375 -19.859375 C 15.769531 -19.640625 16.640625 -19.226562 17.453125 -18.625 C 18.265625 -18.03125 18.945312 -17.203125 19.5 -16.140625 C 20.0625 -15.085938 20.34375 -13.722656 20.34375 -12.046875 L 20.34375 0 L 14.6875 0 L 14.6875 -11.84375 C 14.6875 -12.46875 14.582031 -12.992188 14.375 -13.421875 C 14.175781 -13.859375 13.90625 -14.203125 13.5625 -14.453125 C 13.226562 -14.710938 12.84375 -14.90625 12.40625 -15.03125 C 11.976562 -15.15625 11.546875 -15.21875 11.109375 -15.21875 C 10.753906 -15.21875 10.363281 -15.15625 9.9375 -15.03125 C 9.519531 -14.90625 9.128906 -14.707031 8.765625 -14.4375 C 8.398438 -14.164062 8.09375 -13.8125 7.84375 -13.375 C 7.601562 -12.945312 7.484375 -12.4375 7.484375 -11.84375 L 7.484375 0 L 1.875 0 L 1.875 -20.1875 L 6.671875 -20.1875 L 7.484375 -18.640625 C 8.140625 -19.097656 8.875 -19.46875 9.6875 -19.75 C 10.5 -20.039062 11.378906 -20.1875 12.328125 -20.1875 Z M 12.328125 -20.1875 "/></g></g></g><g fill="#dc2626" fill-opacity="1"><g transform="translate(148.102048, 134.138972)"><g><path d="M 12.328125 -20.1875 C 13.085938 -20.1875 13.925781 -20.078125 14.84375 -19.859375 C 15.769531 -19.640625 16.640625 -19.226562 17.453125 -18.625 C 18.265625 -18.03125 18.945312 -17.203125 19.5 -16.140625 C 20.0625 -15.085938 20.34375 -13.722656 20.34375 -12.046875 L 20.34375 0 L 14.6875 0 L 14.6875 -11.84375 C 14.6875 -12.46875 14.582031 -12.992188 14.375 -13.421875 C 14.175781 -13.859375 13.90625 -14.203125 13.5625 -14.453125 C 13.226562 -14.710938 12.84375 -14.90625 12.40625 -15.03125 C 11.976562 -15.15625 11.546875 -15.21875 11.109375 -15.21875 C 10.753906 -15.21875 10.363281 -15.15625 9.9375 -15.03125 C 9.519531 -14.90625 9.128906 -14.707031 8.765625 -14.4375 C 8.398438 -14.164062 8.09375 -13.8125 7.84375 -13.375 C 7.601562 -12.945312 7.484375 -12.4375 7.484375 -11.84375 L 7.484375 0 L 1.875 0 L 1.875 -20.1875 L 6.671875 -20.1875 L 7.484375 -18.640625 C 8.140625 -19.097656 8.875 -19.46875 9.6875 -19.75 C 10.5 -20.039062 11.378906 -20.1875 12.328125 -20.1875 Z M 12.328125 -20.1875 "/></g></g></g><g fill="#dc2626" fill-opacity="1"><g transform="translate(170.110042, 134.138972)"><g><path d="M 11.796875 -20.75 C 13.316406 -20.75 14.703125 -20.441406 15.953125 -19.828125 C 17.203125 -19.222656 18.269531 -18.425781 19.15625 -17.4375 C 20.050781 -16.445312 20.742188 -15.304688 21.234375 -14.015625 C 21.722656 -12.722656 21.96875 -11.398438 21.96875 -10.046875 C 21.96875 -9.234375 21.859375 -8.367188 21.640625 -7.453125 L 7.25 -7.453125 C 7.789062 -6.523438 8.5625 -5.742188 9.5625 -5.109375 C 10.5625 -4.472656 11.644531 -4.15625 12.8125 -4.15625 C 13.976562 -4.15625 15 -4.25 15.875 -4.4375 C 16.757812 -4.625 17.597656 -4.867188 18.390625 -5.171875 L 20.265625 -1.703125 C 19.253906 -1.003906 18.101562 -0.460938 16.8125 -0.078125 C 15.53125 0.296875 14.15625 0.484375 12.6875 0.484375 C 11.09375 0.484375 9.601562 0.207031 8.21875 -0.34375 C 6.832031 -0.90625 5.625 -1.660156 4.59375 -2.609375 C 3.5625 -3.554688 2.75 -4.679688 2.15625 -5.984375 C 1.5625 -7.285156 1.265625 -8.664062 1.265625 -10.125 C 1.265625 -11.5625 1.535156 -12.925781 2.078125 -14.21875 C 2.617188 -15.507812 3.367188 -16.632812 4.328125 -17.59375 C 5.296875 -18.5625 6.414062 -19.328125 7.6875 -19.890625 C 8.96875 -20.460938 10.335938 -20.75 11.796875 -20.75 Z M 16.390625 -11.796875 C 16.066406 -12.960938 15.484375 -13.910156 14.640625 -14.640625 C 13.804688 -15.378906 12.859375 -15.75 11.796875 -15.75 C 10.710938 -15.75 9.726562 -15.378906 8.84375 -14.640625 C 7.96875 -13.910156 7.363281 -12.960938 7.03125 -11.796875 Z M 16.390625 -11.796875 "/></g></g></g><g fill="#dc2626" fill-opacity="1"><g transform="translate(194.314775, 134.138972)"><g/></g></g><g fill="#dc2626" fill-opacity="1"><g transform="translate(205.501838, 134.138972)"><g><path d="M 8.09375 -5.578125 L 19.9375 -5.578125 L 19.9375 0 L 1.90625 0 L 1.90625 -28.84375 L 8.09375 -28.84375 Z M 8.09375 -5.578125 "/></g></g></g><g fill="#dc2626" fill-opacity="1"><g transform="translate(225.841955, 134.138972)"><g><path d="M 5.046875 -5.859375 C 5.910156 -5.859375 6.644531 -5.554688 7.25 -4.953125 C 7.863281 -4.359375 8.171875 -3.628906 8.171875 -2.765625 C 8.171875 -1.898438 7.863281 -1.164062 7.25 -0.5625 C 6.644531 0.0273438 5.910156 0.328125 5.046875 0.328125 C 4.179688 0.328125 3.445312 0.0273438 2.84375 -0.5625 C 2.25 -1.164062 1.953125 -1.898438 1.953125 -2.765625 C 1.953125 -3.628906 2.25 -4.359375 2.84375 -4.953125 C 3.445312 -5.554688 4.179688 -5.859375 5.046875 -5.859375 Z M 5.046875 -5.859375 "/></g></g></g></svg>